<?xml version="1.0" encoding="UTF-8" standalone="no"?>
<!-- Created with Inkscape (http://www.inkscape.org/) -->

<svg
   version="1.1"
   id="svg1"
   width="1000"
   height="1000"
   viewBox="0 0 1000 1000"
   sodipodi:docname="LOGO.svg"
   inkscape:version="1.4 (e7c3feb1, 2024-10-09)"
   xmlns:inkscape="http://www.inkscape.org/namespaces/inkscape"
   xmlns:sodipodi="http://sodipodi.sourceforge.net/DTD/sodipodi-0.dtd"
   xmlns="http://www.w3.org/2000/svg"
   xmlns:svg="http://www.w3.org/2000/svg">
  <defs
     id="defs1" />
  <sodipodi:namedview
     id="namedview1"
     pagecolor="#ffffff"
     bordercolor="#000000"
     borderopacity="0.25"
     inkscape:showpageshadow="2"
     inkscape:pageopacity="0.0"
     inkscape:pagecheckerboard="0"
     inkscape:deskcolor="#d1d1d1"
     inkscape:zoom="0.1747611"
     inkscape:cx="-111.5809"
     inkscape:cy="-317.57639"
     inkscape:window-width="1512"
     inkscape:window-height="764"
     inkscape:window-x="1959"
     inkscape:window-y="345"
     inkscape:window-maximized="0"
     inkscape:current-layer="g1" />
  <g
     inkscape:groupmode="layer"
     inkscape:label="Image"
     id="g1">
    <path
       style="fill:#008080"
       d="m 339.05618,716.05542 c -0.36667,-0.36666 -0.66667,-4.41666 -0.66667,-9 v -8.33333 h 3.87756 c 7.01307,0 6.95695,-0.71521 -1.85389,-23.62467 -4.41302,-11.47449 -8.02367,-21.63721 -8.02367,-22.58383 0,-2.57207 3.17211,-3.7915 9.86283,-3.7915 8.40033,0 7.98709,-0.60323 14.21432,20.75 1.37788,4.72478 2.4372,5.38927 3.18836,2 1.52045,-6.86029 6.38607,-20.42025 7.70328,-21.4682 1.87836,-1.49438 12.44302,-1.66696 15.09695,-0.24662 1.06384,0.56935 1.93426,1.78302 1.93426,2.69705 0,1.87877 -17.20261,46.77752 -20.10021,52.46148 -2.60607,5.11209 -8.35556,10.44744 -12.05589,11.18751 -4.10287,0.82057 -12.3387,0.79065 -13.17723,-0.0479 z m 221,0 c -0.36667,-0.36666 -0.66667,-4.41666 -0.66667,-9 v -8.33333 h 3.41821 c 4.28693,0 6.58179,-0.85474 6.58179,-2.45145 0,-0.68061 -3.63896,-10.79149 -8.08658,-22.46861 -7.75493,-20.36041 -8.01515,-21.31005 -6.34501,-23.15553 1.34457,-1.48573 3.08895,-1.92441 7.65232,-1.92441 3.25091,0 6.7023,0.42362 7.66974,0.94138 1.13005,0.60478 2.95456,4.98492 5.10264,12.25 1.83901,6.21974 3.61438,11.63262 3.94526,12.02861 0.33089,0.396 2.13067,-4.329 3.99951,-10.5 1.86884,-6.17099 4.06709,-12.00749 4.88499,-12.96999 1.1435,-1.34565 3.04041,-1.75 8.20967,-1.75 8.4676,0 9.85992,1.24295 8.20803,7.32742 -2.38605,8.78862 -19.09554,49.79365 -21.66197,53.15842 -3.83035,5.02184 -9.26069,7.51416 -16.3721,7.51416 -3.23024,0 -6.17317,-0.3 -6.53983,-0.66667 z M 291.38951,682.72209 v -16 h -6.5 -6.5 v -7.96482 c 0,-6.85112 0.27046,-8.10956 1.93426,-9 2.47568,-1.32494 37.03888,-1.37609 40.50064,-0.0599 2.45935,0.93504 2.5651,1.30609 2.5651,9 v 8.02472 h -6.5 -6.5 v 16 16 h -9.5 -9.5 z m 105.57143,14.42857 c -1.33234,-1.33234 -1.57143,-4.88418 -1.57143,-23.34501 0,-26.08304 -0.45141,-25.08356 11.32874,-25.08356 h 7.67126 v 9 c 0,4.95 0.3375,8.9879 0.75,8.97312 0.4125,-0.0148 2.07341,-2.98832 3.6909,-6.60784 4.78008,-10.69652 5.57043,-11.36528 13.43168,-11.36528 10.90247,0 11.50298,2.21814 4.11727,15.20812 l -5.01016,8.81184 6.01016,10.30297 c 3.30558,5.66663 6.01015,10.97214 6.01015,11.79002 0,2.98669 -2.36051,3.88705 -10.19088,3.88705 h -7.79089 l -5.25911,-10.25 -5.25912,-10.25 -0.28498,10.25 -0.28499,10.25 h -7.89358 c -5.84266,0 -8.30189,-0.40829 -9.46502,-1.57143 z m 116.09087,0.82143 c -0.25065,-0.4125 -0.38971,-7.61264 -0.30901,-16.00032 l 0.14671,-15.25032 -6.75,3.2e-4 -6.75,3.2e-4 v -7.34501 c 0,-10.89414 -0.52086,-10.65499 23.2063,-10.65499 23.05952,0 22.2937,-0.35734 22.2937,10.40233 v 7.09767 l -6.75,0.29569 -6.75,0.29569 v 15.95431 15.95431 h -8.94098 c -4.91754,0 -9.14607,-0.3375 -9.39672,-0.75 z m 105.5377,-0.45 c -0.86254,-0.86254 -1.2,-7.55556 -1.2,-23.8 0,-16.24444 0.33746,-22.93746 1.2,-23.8 0.72821,-0.72821 4.26667,-1.2 9,-1.2 h 7.8 l 0.11574,4.25 c 0.0637,2.3375 0.0582,6.3875 -0.0122,9 -0.0704,2.6125 0.21506,4.74891 0.63427,4.74757 0.4192,-10e-4 2.78719,-3.93884 5.26219,-8.75 l 4.5,-8.74757 6.34879,-0.30028 c 6.27622,-0.29685 11.15121,1.38218 11.15121,3.84068 0,0.54686 -2.25,4.98564 -5,9.86395 -2.75,4.87831 -5,9.39436 -5,10.03567 0,0.6413 2.475,5.45278 5.5,10.69218 7.94928,13.76839 7.48538,15.37003 -4.45,15.36396 l -7.55,-0.004 -5,-9.94117 c -2.75,-5.46765 -5.36688,-9.96592 -5.8153,-9.99616 -0.44841,-0.0302 -0.75298,3.20752 -0.67683,7.19502 0.0762,3.9875 0.10554,8.4875 0.0653,10 l -0.0732,2.75015 h -7.8 c -4.73333,0 -8.27179,-0.47179 -9,-1.2 z m -163,-16 c -1.58053,-1.58053 -1.58053,-14.01947 0,-15.6 0.82541,-0.82541 5.82772,-1.2 16.02475,-1.2 h 14.82475 l 0.97525,2.5651 c 1.47187,3.8713 1.17088,10.71059 -0.58145,13.21239 -1.48476,2.11979 -2.215,2.22251 -15.8,2.22251 -9.74479,0 -14.6223,-0.379 -15.4433,-1.2 z m -160.7,-70.96091 c -33.0405,-6.19329 -60.29436,-28.62084 -72.9652,-60.04399 -5.44274,-13.49777 -6.85473,-22.55316 -6.26525,-40.18027 0.58708,-17.55511 2.35388,-24.99098 9.22231,-38.81362 5.2978,-10.66178 7.0373,-13.23013 15.25938,-22.53027 11.99974,-13.57313 27.71136,-23.47745 45.74876,-28.83917 12.7617,-3.79349 32.81132,-4.48876 46.69106,-1.61912 12.33698,2.55068 25.06054,8.16858 36.63297,16.17476 l 9.10842,6.30149 3.50251,-2.6715 c 2.4362,-1.85818 3.82385,-3.95714 4.558,-6.89445 1.50142,-6.00712 2.7984,-7.86959 9.00704,-12.93411 4.97525,-4.05843 5.47949,-4.83061 5.28503,-8.09342 -0.18523,-3.10779 -7.87461,-25.26006 -18.46493,-53.19542 -4.44863,-11.73468 -5.52034,-13.5 -8.19574,-13.5 -2.74338,0 -9.5496,-4.6948 -11.74773,-8.10336 -3.18726,-4.94236 -4.02089,-9.02753 -2.35956,-11.56303 l 1.52904,-2.33361 h 29.92024 c 29.78511,0 29.92727,0.01 31.47695,2.22251 2.22681,3.17922 1.92319,6.60238 -0.80082,9.02872 -1.43708,1.28004 -7.39109,3.42071 -15.25,5.4829 -7.09086,1.86065 -13.25907,3.74574 -13.70712,4.18908 -0.44805,0.44334 0.53844,4.35448 2.19221,8.69143 3.24632,8.51335 11.76818,31.56885 15.85143,42.88536 2.93946,8.14655 7.05366,14.44819 9.45278,14.47865 1.78812,0.0227 6.47397,-1.67627 35.81822,-12.98677 10.175,-3.92187 25.475,-9.77181 34,-12.99987 8.525,-3.22806 22.7,-8.64382 31.5,-12.03502 8.8,-3.3912 19.6,-7.479 24,-9.084 15.93429,-5.81239 15.5,-5.50002 15.5,-11.14867 0,-3.40185 -1.4468,-8.95916 -4.58154,-17.59813 -2.51985,-6.9444 -4.65735,-14.39905 -4.75,-16.56588 -0.15637,-3.65702 0.20821,-4.22315 5.08154,-7.89052 3.74974,-2.82182 5.25,-4.62928 5.25,-6.32499 0,-1.3058 1.52885,-4.04244 3.39745,-6.08143 3.09018,-3.37196 3.82753,-3.68855 8.15265,-3.50031 5.73057,0.24941 8.9906,2.20592 11.12158,6.67464 2.95377,6.19411 0.77075,11.03531 -8.42109,18.67515 -1.729,1.43706 -3.46138,3.87881 -3.84972,5.4261 -0.94879,3.78027 3.21432,15.88678 6.93206,20.15874 1.82004,2.09136 5.67462,10.7998 10.78076,24.35636 6.39152,16.96918 7.82429,21.75962 7.31694,24.46403 -0.9424,5.02344 2.08573,12.8706 7.18004,18.60652 2.41413,2.71819 4.38933,5.37404 4.38933,5.9019 0,0.59817 5.55676,0.7216 14.75,0.32762 16.39768,-0.70273 24.89958,0.29716 37.25,4.3809 25.98417,8.59183 49.37076,30.38703 59.99836,55.91568 5.38772,12.94189 7.29903,24.51632 6.66295,40.3493 -0.68111,16.95389 -2.94519,26.00482 -10.13105,40.5 -13.25543,26.7386 -37.95086,45.8182 -67.37677,52.05506 -8.57906,1.81834 -30.68131,1.83119 -39.15349,0.0227 -19.60721,-4.18525 -33.879,-11.72645 -48.33997,-25.54276 -17.40348,-16.62766 -27.10731,-36.6266 -29.61124,-61.0268 -3.7214,-36.26402 12.91579,-70.76419 44.19805,-91.65252 6.68573,-4.46431 6.74758,-4.54746 6.82923,-9.18042 0.0453,-2.57142 0.13137,-6.70031 0.19122,-9.17531 0.14474,-5.98474 -3.78742,-14.16271 -7.40625,-15.40331 -2.91397,-0.99895 -3.53984,-0.40086 -33.38473,31.90331 -7.11381,7.7 -23.06868,24.80469 -35.45526,38.01042 -12.38658,13.20573 -25.33355,27.05969 -28.77105,30.78659 l -6.25,6.77616 v 8.02804 c 0,5.95463 -0.5457,9.29653 -2.11289,12.93958 l -2.11289,4.91154 8.23108,9.49396 c 4.52709,5.22168 9.05576,9.7557 10.06372,10.07562 1.00796,0.31991 3.69199,0.081 5.96452,-0.53094 3.41488,-0.91953 4.55135,-0.83775 6.54917,0.47127 5.7825,3.78883 2.00145,7.65382 -12.62812,12.90844 -12.09542,4.34442 -15.11944,4.55833 -16.91849,1.19678 -1.71506,-3.20463 -0.83985,-5.16069 3.43857,-7.68502 2.09418,-1.23559 3.24548,-2.54537 2.8395,-3.23034 -1.85723,-3.13348 -12.7803,-14.66527 -14.36867,-15.1694 -0.99866,-0.31696 -4.3987,0.17459 -7.55564,1.09234 -6.62302,1.92537 -14.42675,1.49149 -19.3964,-1.07842 -3.46665,-1.79267 -19.86924,-3.24658 -24.24288,-2.14887 -1.48916,0.37376 -2.9126,1.74217 -3.52584,3.38953 -8.13249,21.84661 -13.64847,31.00532 -26.08519,43.31177 -13.77341,13.62915 -30.30965,22.64597 -48.34739,26.36272 -8.53129,1.7579 -29.92026,1.99659 -38.29216,0.42732 z m 43.16548,-23.50103 c 4.49101,-1.64532 10.73652,-4.53197 13.8789,-6.41477 8.12078,-4.8657 19.61894,-15.89578 24.98574,-23.96859 5.13155,-7.71897 10.02807,-18.84275 8.78341,-19.95393 -0.44744,-0.39945 -13.12254,-1.21805 -28.16689,-1.8191 l -27.35336,-1.09283 -5.14664,2.70558 c -4.28266,2.25139 -6.40568,2.70225 -12.64664,2.68573 -8.6949,-0.023 -11.64004,-1.28585 -17.8,-7.63238 -9.90726,-10.20732 -9.38387,-25.3397 1.24651,-36.03903 5.60984,-5.64623 13.24389,-7.30885 25.05349,-5.45641 4.93174,0.77358 5.06238,0.72534 9.56904,-3.53402 2.51297,-2.37507 10.50047,-9.86521 17.75,-16.64475 7.24953,-6.77955 13.18096,-12.91364 13.18096,-13.63131 0,-2.6114 -12.95771,-10.74472 -23,-14.43669 -8.70903,-3.2018 -14.28757,-4.11822 -25.77662,-4.23444 -20.06536,-0.20299 -37.6347,6.8163 -52.52651,20.98536 -21.99229,20.92491 -29.80459,51.94333 -20.21859,80.2771 6.64612,19.64426 21.57278,36.07097 41.31085,45.46238 11.45716,5.45134 16.6569,6.38256 33.71087,6.03728 13.75817,-0.27856 15.67601,-0.55136 23.16548,-3.29518 z m 315.49434,0.61766 c 13.04488,-4.25176 21.79767,-9.70761 31.95784,-19.92016 7.31684,-7.35456 9.39634,-10.2375 13.77624,-19.09883 6.03128,-12.20236 8.2547,-21.5232 8.23636,-34.52772 -0.0448,-31.78843 -20.96778,-61.05711 -51.75472,-72.39866 -7.8803,-2.903 -10.3516,-3.32547 -22.03905,-3.76751 -7.23993,-0.27383 -14.82423,-0.18632 -16.85399,0.19446 -3.33941,0.62648 -3.64444,0.94777 -3.20657,3.37752 0.56383,3.12864 12.9322,37.83704 14.58136,40.91852 0.73718,1.37744 2.5653,2.32845 5.37967,2.79858 6.61085,1.10432 12.8271,4.44996 17.90339,9.63578 12.93633,13.21543 9.60068,34.86729 -6.85751,44.51243 -6.81512,3.99393 -18.05958,4.48433 -25.43193,1.10915 -6.7968,-3.11167 -11.52226,-7.82973 -14.62085,-14.59793 -2.07205,-4.52597 -2.37787,-6.4689 -2.04718,-13.00609 0.44412,-8.77938 2.27887,-13.31368 7.49981,-18.53462 l 3.55004,-3.55003 -6.64623,-18.80031 c -7.22318,-20.43232 -9.56615,-26.30538 -10.48837,-26.29092 -2.5967,0.0407 -13.10614,7.789 -20.18866,14.88443 -12.9467,12.9703 -19.99037,27.36616 -22.02705,45.01891 -4.32141,37.4556 19.16267,72.11449 56.28349,83.06575 4.74589,1.40012 9.75913,1.88783 19.99391,1.9451 12.62237,0.0706 14.3692,-0.15478 23,-2.96785 z M 422.24586,530.83203 c 1.12296,-0.71154 1.06033,-1.48326 -0.36394,-4.48469 -1.59462,-3.36042 -2.04305,-3.62525 -6.13858,-3.62525 -3.64657,0 -4.56125,0.38648 -5.23681,2.2127 -1.515,4.09544 -0.29498,5.6555 4.73639,6.05648 2.55562,0.20368 4.87159,0.44454 5.14659,0.53526 0.275,0.0907 1.11036,-0.22181 1.85635,-0.6945 z m 212.81692,-1.09629 c 4.94754,-0.0311 12.32673,-9.60544 12.32673,-15.99368 0,-3.5584 -3.68899,-9.84357 -7.56877,-12.8954 -5.5913,-4.39812 -7.18869,-1.4946 -2.95732,5.37543 2.76104,4.48281 3.27805,10.92479 1.10654,13.78761 -1.69167,2.23022 -6.44368,3.65235 -9.95887,2.98038 -3.24195,-0.61974 -6.62158,-4.66971 -6.62158,-7.93497 0,-2.97103 -2.58246,-9.33302 -3.78846,-9.33302 -0.48978,0 -1.41274,1.14617 -2.05102,2.54705 -4.58479,10.06252 5.03166,23.76102 15.33948,21.85088 1.1,-0.20384 2.97797,-0.37677 4.17327,-0.38428 z M 388.8117,527.1761 c 0.35145,-1.40029 0.37367,-2.97529 0.0494,-3.5 -0.3491,-0.56484 -10.95338,-0.95401 -25.99542,-0.95401 -24.09452,0 -25.45923,0.0998 -26.44099,1.93426 -2.40128,4.48684 -1.9802,4.55176 31.60641,4.87306 l 20.14159,0.19268 z m 26.04571,-35.95401 c 5.28584,-7.7 10.15546,-14.68076 10.82136,-15.51281 3.03248,-3.78906 6.80683,-10.22444 6.29615,-10.73512 -0.31043,-0.31043 -4.67378,-0.69877 -9.69633,-0.86299 -5.02255,-0.16421 -9.36169,-0.52836 -9.64255,-0.80921 -0.42965,-0.42966 0.77169,-6.21382 6.35127,-30.57987 l 0.57247,-2.5 -2.12972,2.5 c -1.17134,1.375 -7.92354,11.12321 -15.00489,21.66269 l -12.87517,19.16269 9.43494,0.70737 c 5.18921,0.38905 9.58695,0.99084 9.77274,1.33731 0.18579,0.34647 -0.88314,6.25494 -2.37541,13.12994 -4.27943,19.71572 -4.28035,19.72214 -2.58645,17.98661 0.79803,-0.81764 5.77574,-7.78661 11.06159,-15.48661 z m -25.82997,14.1954 c 0.36366,-0.36366 0.24079,-2.13139 -0.27304,-3.9283 l -0.93423,-3.2671 -7.96533,-0.27678 c -4.38093,-0.15222 -14.61832,0.0985 -22.74975,0.55715 -14.25128,0.80386 -14.88235,0.93215 -17.5,3.55764 -2.31301,2.31992 -2.49321,2.87601 -1.21558,3.75111 1.64747,1.12841 49.48777,0.75645 50.63793,-0.39372 z m -4.21796,-13.73664 c 0.55879,-0.54587 0.40121,-2.47057 -0.40139,-4.90247 -1.69171,-5.12592 -7.32461,-15.32497 -8.721,-15.79043 -0.58891,-0.1963 -3.25928,1.53419 -5.93416,3.84554 -9.00686,7.78277 -19.36342,17.3686 -19.36342,17.9224 0,0.92784 33.4388,-0.11657 34.41997,-1.07504 z m 96.90353,-24.95876 c 9.93197,-10.725 21.46149,-23.1 25.62116,-27.5 28.0645,-29.68598 57.60611,-61.88215 57.87866,-63.07956 0.17783,-0.78124 -0.33631,-1.42044 -1.14254,-1.42044 -0.80623,0 -14.00173,4.7148 -29.32333,10.47734 -15.3216,5.76254 -45.60457,17.15859 -67.2955,25.32457 -21.69093,8.16597 -39.84658,15.49488 -40.3459,16.28647 -0.62626,0.99282 2.07692,9.49948 8.71502,27.42543 12.87774,34.77586 11.13765,31.55963 18.14882,33.54468 5.45617,1.54478 6.06765,1.54939 7.80279,0.0588 1.03548,-0.8895 10.00884,-10.39229 19.94082,-21.11729 z"
       id="path1" />
  </g>
</svg>
